<svg width="709" height="612" viewBox="0 0 709 612" fill="none" xmlns="http://www.w3.org/2000/svg">
<path d="M596.81 84.7879L235.165 84.7879C215.165 84.7879 210.625 90.1169 210.625 113.406V575.381C210.625 597.553 214.178 604 237.599 604H327.665C347.599 604 352.205 598.671 352.205 575.381V409.328L530.824 409.328C554.376 409.328 559.442 404.986 559.442 384.92V312.157C559.442 295.249 555.495 289.92 530.824 289.92H352.205L351.613 211.565L596.284 211.565C618.456 211.565 624.903 208.012 624.903 184.591L625.495 109.262C625.495 89.3274 620.166 84.7221 596.876 84.7221L596.81 84.7879Z" fill="black"/>
<path d="M596.81 84.7879L235.165 84.7879C215.165 84.7879 210.625 90.1169 210.625 113.406V575.381C210.625 597.553 214.178 604 237.599 604H327.665C347.599 604 352.205 598.671 352.205 575.381V409.328L530.824 409.328C554.376 409.328 559.442 404.986 559.442 384.92V312.157C559.442 295.249 555.495 289.92 530.824 289.92H352.205L351.613 211.565L596.284 211.565C618.456 211.565 624.903 208.012 624.903 184.591L625.495 109.262C625.495 89.3274 620.166 84.7221 596.876 84.7221L596.81 84.7879Z" stroke="black"/>
<path d="M469.185 7.06579L107.539 7.06579C87.5394 7.06579 83 12.3947 83 35.6843L83 497.659C83 519.83 86.5525 526.278 109.974 526.278H200.04C219.974 526.278 224.579 520.949 224.579 497.659V331.606H403.198C426.751 331.606 431.817 327.264 431.817 307.198V234.435C431.817 217.527 427.869 212.198 403.198 212.198H224.579L223.987 133.842H468.659C490.83 133.842 497.277 130.29 497.277 106.869L497.87 31.5395C497.87 11.6053 492.54 7 469.251 7L469.185 7.06579Z" fill="#16E7CE"/>
<path d="M469.185 7.06579L107.539 7.06579C87.5394 7.06579 83 12.3947 83 35.6843L83 497.659C83 519.83 86.5525 526.278 109.974 526.278H200.04C219.974 526.278 224.579 520.949 224.579 497.659V331.606H403.198C426.751 331.606 431.817 327.264 431.817 307.198V234.435C431.817 217.527 427.869 212.198 403.198 212.198H224.579L223.987 133.842H468.659C490.83 133.842 497.277 130.29 497.277 106.869L497.87 31.5395C497.87 11.6053 492.54 7 469.251 7L469.185 7.06579Z" stroke="black"/>
<circle cx="229.406" cy="171.996" r="66.5" fill="black" stroke="black" stroke-width="94.5746"/>
<circle cx="229.958" cy="171.444" r="87.8261" fill="#16E7CE"/>
<rect x="209.521" y="39.4282" width="40.8751" height="132.568" rx="15" fill="black"/>
<rect x="190.74" y="48.266" width="18.7804" height="91.6927" fill="#16E7CE"/>
<rect x="250.396" y="48.266" width="18.7804" height="91.6927" fill="#16E7CE"/>
</svg>
